<mxfile host="app.diagrams.net" modified="2020-10-09T08:57:51.645Z" agent="5.0 (Windows NT 10.0; Win64; x64) AppleWebKit/537.36 (KHTML, like Gecko) Chrome/83.0.4103.116 Safari/537.36" etag="FgsW5m3iHBAXmamDME8f" version="13.7.9" type="github">
  <diagram name="Page-1" id="64c3da0e-402f-94eb-ee01-a36477274f13">
    <mxGraphModel dx="2062" dy="1105" grid="1" gridSize="10" guides="1" tooltips="1" connect="1" arrows="1" fold="1" page="1" pageScale="1" pageWidth="1169" pageHeight="826" background="#ffffff" math="0" shadow="0">
      <root>
        <mxCell id="0" />
        <mxCell id="1" parent="0" />
        <mxCell id="2rhRFB4bLGAKDu0UOLrD-273" value="" style="edgeStyle=orthogonalEdgeStyle;rounded=0;orthogonalLoop=1;jettySize=auto;html=1;" edge="1" parent="1" source="2rhRFB4bLGAKDu0UOLrD-271" target="2rhRFB4bLGAKDu0UOLrD-272">
          <mxGeometry relative="1" as="geometry" />
        </mxCell>
        <mxCell id="2rhRFB4bLGAKDu0UOLrD-275" value="" style="edgeStyle=orthogonalEdgeStyle;rounded=0;orthogonalLoop=1;jettySize=auto;html=1;" edge="1" parent="1" source="2rhRFB4bLGAKDu0UOLrD-271" target="2rhRFB4bLGAKDu0UOLrD-274">
          <mxGeometry relative="1" as="geometry" />
        </mxCell>
        <mxCell id="2rhRFB4bLGAKDu0UOLrD-277" value="" style="edgeStyle=orthogonalEdgeStyle;rounded=0;orthogonalLoop=1;jettySize=auto;html=1;" edge="1" parent="1" source="2rhRFB4bLGAKDu0UOLrD-271" target="2rhRFB4bLGAKDu0UOLrD-276">
          <mxGeometry relative="1" as="geometry" />
        </mxCell>
        <mxCell id="2rhRFB4bLGAKDu0UOLrD-271" value="CEO" style="rounded=0;whiteSpace=wrap;html=1;" vertex="1" parent="1">
          <mxGeometry x="2100" y="530" width="120" height="60" as="geometry" />
        </mxCell>
        <mxCell id="2rhRFB4bLGAKDu0UOLrD-272" value="妈妈" style="rounded=0;whiteSpace=wrap;html=1;" vertex="1" parent="1">
          <mxGeometry x="1900" y="530" width="120" height="60" as="geometry" />
        </mxCell>
        <mxCell id="2rhRFB4bLGAKDu0UOLrD-274" value="爸爸" style="whiteSpace=wrap;html=1;rounded=0;" vertex="1" parent="1">
          <mxGeometry x="2300" y="530" width="120" height="60" as="geometry" />
        </mxCell>
        <mxCell id="2rhRFB4bLGAKDu0UOLrD-360" style="edgeStyle=orthogonalEdgeStyle;rounded=0;orthogonalLoop=1;jettySize=auto;html=1;entryX=0.5;entryY=0;entryDx=0;entryDy=0;" edge="1" parent="1" source="2rhRFB4bLGAKDu0UOLrD-276" target="2rhRFB4bLGAKDu0UOLrD-288">
          <mxGeometry relative="1" as="geometry" />
        </mxCell>
        <mxCell id="2rhRFB4bLGAKDu0UOLrD-362" style="edgeStyle=orthogonalEdgeStyle;rounded=0;orthogonalLoop=1;jettySize=auto;html=1;entryX=0.5;entryY=0;entryDx=0;entryDy=0;" edge="1" parent="1" source="2rhRFB4bLGAKDu0UOLrD-276" target="2rhRFB4bLGAKDu0UOLrD-285">
          <mxGeometry relative="1" as="geometry" />
        </mxCell>
        <mxCell id="2rhRFB4bLGAKDu0UOLrD-363" style="edgeStyle=orthogonalEdgeStyle;rounded=0;orthogonalLoop=1;jettySize=auto;html=1;" edge="1" parent="1" source="2rhRFB4bLGAKDu0UOLrD-276" target="2rhRFB4bLGAKDu0UOLrD-299">
          <mxGeometry relative="1" as="geometry" />
        </mxCell>
        <mxCell id="2rhRFB4bLGAKDu0UOLrD-364" style="edgeStyle=orthogonalEdgeStyle;rounded=0;orthogonalLoop=1;jettySize=auto;html=1;entryX=0.5;entryY=0;entryDx=0;entryDy=0;" edge="1" parent="1" source="2rhRFB4bLGAKDu0UOLrD-276" target="2rhRFB4bLGAKDu0UOLrD-318">
          <mxGeometry relative="1" as="geometry" />
        </mxCell>
        <mxCell id="2rhRFB4bLGAKDu0UOLrD-365" style="edgeStyle=orthogonalEdgeStyle;rounded=0;orthogonalLoop=1;jettySize=auto;html=1;entryX=0.5;entryY=0;entryDx=0;entryDy=0;" edge="1" parent="1" source="2rhRFB4bLGAKDu0UOLrD-276" target="2rhRFB4bLGAKDu0UOLrD-333">
          <mxGeometry relative="1" as="geometry" />
        </mxCell>
        <mxCell id="2rhRFB4bLGAKDu0UOLrD-366" style="edgeStyle=orthogonalEdgeStyle;rounded=0;orthogonalLoop=1;jettySize=auto;html=1;entryX=0.5;entryY=0;entryDx=0;entryDy=0;" edge="1" parent="1" source="2rhRFB4bLGAKDu0UOLrD-276" target="2rhRFB4bLGAKDu0UOLrD-340">
          <mxGeometry relative="1" as="geometry" />
        </mxCell>
        <mxCell id="2rhRFB4bLGAKDu0UOLrD-367" style="edgeStyle=orthogonalEdgeStyle;rounded=0;orthogonalLoop=1;jettySize=auto;html=1;entryX=0.5;entryY=0;entryDx=0;entryDy=0;" edge="1" parent="1" source="2rhRFB4bLGAKDu0UOLrD-276" target="2rhRFB4bLGAKDu0UOLrD-345">
          <mxGeometry relative="1" as="geometry" />
        </mxCell>
        <mxCell id="2rhRFB4bLGAKDu0UOLrD-368" style="edgeStyle=orthogonalEdgeStyle;rounded=0;orthogonalLoop=1;jettySize=auto;html=1;entryX=0.5;entryY=0;entryDx=0;entryDy=0;" edge="1" parent="1" source="2rhRFB4bLGAKDu0UOLrD-276" target="2rhRFB4bLGAKDu0UOLrD-349">
          <mxGeometry relative="1" as="geometry" />
        </mxCell>
        <mxCell id="2rhRFB4bLGAKDu0UOLrD-276" value="总经理" style="whiteSpace=wrap;html=1;rounded=0;" vertex="1" parent="1">
          <mxGeometry x="2100" y="670" width="120" height="60" as="geometry" />
        </mxCell>
        <mxCell id="2rhRFB4bLGAKDu0UOLrD-282" value="" style="edgeStyle=orthogonalEdgeStyle;rounded=0;orthogonalLoop=1;jettySize=auto;html=1;" edge="1" parent="1" source="2rhRFB4bLGAKDu0UOLrD-279" target="2rhRFB4bLGAKDu0UOLrD-281">
          <mxGeometry relative="1" as="geometry" />
        </mxCell>
        <mxCell id="2rhRFB4bLGAKDu0UOLrD-279" value="销售总监" style="whiteSpace=wrap;html=1;rounded=0;" vertex="1" parent="1">
          <mxGeometry x="980" y="980" width="120" height="60" as="geometry" />
        </mxCell>
        <mxCell id="2rhRFB4bLGAKDu0UOLrD-284" value="" style="edgeStyle=orthogonalEdgeStyle;rounded=0;orthogonalLoop=1;jettySize=auto;html=1;" edge="1" parent="1" source="2rhRFB4bLGAKDu0UOLrD-281" target="2rhRFB4bLGAKDu0UOLrD-283">
          <mxGeometry relative="1" as="geometry" />
        </mxCell>
        <mxCell id="2rhRFB4bLGAKDu0UOLrD-281" value="销售经理" style="whiteSpace=wrap;html=1;rounded=0;" vertex="1" parent="1">
          <mxGeometry x="980" y="1120" width="120" height="60" as="geometry" />
        </mxCell>
        <mxCell id="2rhRFB4bLGAKDu0UOLrD-315" value="" style="edgeStyle=orthogonalEdgeStyle;rounded=0;orthogonalLoop=1;jettySize=auto;html=1;" edge="1" parent="1" source="2rhRFB4bLGAKDu0UOLrD-283" target="2rhRFB4bLGAKDu0UOLrD-314">
          <mxGeometry relative="1" as="geometry" />
        </mxCell>
        <mxCell id="2rhRFB4bLGAKDu0UOLrD-283" value="销售副经理" style="whiteSpace=wrap;html=1;rounded=0;" vertex="1" parent="1">
          <mxGeometry x="980" y="1260" width="120" height="60" as="geometry" />
        </mxCell>
        <mxCell id="2rhRFB4bLGAKDu0UOLrD-291" style="edgeStyle=orthogonalEdgeStyle;rounded=0;orthogonalLoop=1;jettySize=auto;html=1;entryX=0.5;entryY=0;entryDx=0;entryDy=0;" edge="1" parent="1" source="2rhRFB4bLGAKDu0UOLrD-285" target="2rhRFB4bLGAKDu0UOLrD-290">
          <mxGeometry relative="1" as="geometry" />
        </mxCell>
        <mxCell id="2rhRFB4bLGAKDu0UOLrD-285" value="设计部" style="rounded=0;whiteSpace=wrap;html=1;" vertex="1" parent="1">
          <mxGeometry x="1120" y="840" width="120" height="60" as="geometry" />
        </mxCell>
        <mxCell id="2rhRFB4bLGAKDu0UOLrD-289" style="edgeStyle=orthogonalEdgeStyle;rounded=0;orthogonalLoop=1;jettySize=auto;html=1;entryX=0.5;entryY=0;entryDx=0;entryDy=0;" edge="1" parent="1" source="2rhRFB4bLGAKDu0UOLrD-288" target="2rhRFB4bLGAKDu0UOLrD-279">
          <mxGeometry relative="1" as="geometry" />
        </mxCell>
        <mxCell id="2rhRFB4bLGAKDu0UOLrD-288" value="销售部" style="rounded=0;whiteSpace=wrap;html=1;" vertex="1" parent="1">
          <mxGeometry x="980" y="840" width="120" height="60" as="geometry" />
        </mxCell>
        <mxCell id="2rhRFB4bLGAKDu0UOLrD-293" value="" style="edgeStyle=orthogonalEdgeStyle;rounded=0;orthogonalLoop=1;jettySize=auto;html=1;" edge="1" parent="1" source="2rhRFB4bLGAKDu0UOLrD-290" target="2rhRFB4bLGAKDu0UOLrD-292">
          <mxGeometry relative="1" as="geometry" />
        </mxCell>
        <mxCell id="2rhRFB4bLGAKDu0UOLrD-290" value="设计总店" style="rounded=0;whiteSpace=wrap;html=1;" vertex="1" parent="1">
          <mxGeometry x="1120" y="980" width="120" height="60" as="geometry" />
        </mxCell>
        <mxCell id="2rhRFB4bLGAKDu0UOLrD-295" value="" style="edgeStyle=orthogonalEdgeStyle;rounded=0;orthogonalLoop=1;jettySize=auto;html=1;" edge="1" parent="1" source="2rhRFB4bLGAKDu0UOLrD-292" target="2rhRFB4bLGAKDu0UOLrD-294">
          <mxGeometry relative="1" as="geometry" />
        </mxCell>
        <mxCell id="2rhRFB4bLGAKDu0UOLrD-292" value="设计经理" style="whiteSpace=wrap;html=1;rounded=0;" vertex="1" parent="1">
          <mxGeometry x="1120" y="1120" width="120" height="60" as="geometry" />
        </mxCell>
        <mxCell id="2rhRFB4bLGAKDu0UOLrD-317" value="" style="edgeStyle=orthogonalEdgeStyle;rounded=0;orthogonalLoop=1;jettySize=auto;html=1;" edge="1" parent="1" source="2rhRFB4bLGAKDu0UOLrD-294" target="2rhRFB4bLGAKDu0UOLrD-316">
          <mxGeometry relative="1" as="geometry" />
        </mxCell>
        <mxCell id="2rhRFB4bLGAKDu0UOLrD-294" value="设计副经理" style="whiteSpace=wrap;html=1;rounded=0;" vertex="1" parent="1">
          <mxGeometry x="1120" y="1260" width="120" height="60" as="geometry" />
        </mxCell>
        <mxCell id="2rhRFB4bLGAKDu0UOLrD-301" value="" style="edgeStyle=orthogonalEdgeStyle;rounded=0;orthogonalLoop=1;jettySize=auto;html=1;" edge="1" parent="1" source="2rhRFB4bLGAKDu0UOLrD-299" target="2rhRFB4bLGAKDu0UOLrD-300">
          <mxGeometry relative="1" as="geometry" />
        </mxCell>
        <mxCell id="2rhRFB4bLGAKDu0UOLrD-312" style="edgeStyle=orthogonalEdgeStyle;rounded=0;orthogonalLoop=1;jettySize=auto;html=1;entryX=0.5;entryY=0;entryDx=0;entryDy=0;" edge="1" parent="1" source="2rhRFB4bLGAKDu0UOLrD-299" target="2rhRFB4bLGAKDu0UOLrD-311">
          <mxGeometry relative="1" as="geometry" />
        </mxCell>
        <mxCell id="2rhRFB4bLGAKDu0UOLrD-313" style="edgeStyle=orthogonalEdgeStyle;rounded=0;orthogonalLoop=1;jettySize=auto;html=1;entryX=0.5;entryY=0;entryDx=0;entryDy=0;" edge="1" parent="1" source="2rhRFB4bLGAKDu0UOLrD-299" target="2rhRFB4bLGAKDu0UOLrD-310">
          <mxGeometry relative="1" as="geometry" />
        </mxCell>
        <mxCell id="2rhRFB4bLGAKDu0UOLrD-299" value="店面经理" style="rounded=0;whiteSpace=wrap;html=1;" vertex="1" parent="1">
          <mxGeometry x="1610" y="840" width="120" height="60" as="geometry" />
        </mxCell>
        <mxCell id="2rhRFB4bLGAKDu0UOLrD-303" value="" style="edgeStyle=orthogonalEdgeStyle;rounded=0;orthogonalLoop=1;jettySize=auto;html=1;" edge="1" parent="1" source="2rhRFB4bLGAKDu0UOLrD-300" target="2rhRFB4bLGAKDu0UOLrD-302">
          <mxGeometry relative="1" as="geometry" />
        </mxCell>
        <mxCell id="2rhRFB4bLGAKDu0UOLrD-305" value="" style="edgeStyle=orthogonalEdgeStyle;rounded=0;orthogonalLoop=1;jettySize=auto;html=1;" edge="1" parent="1" source="2rhRFB4bLGAKDu0UOLrD-300" target="2rhRFB4bLGAKDu0UOLrD-304">
          <mxGeometry relative="1" as="geometry" />
        </mxCell>
        <mxCell id="2rhRFB4bLGAKDu0UOLrD-307" value="" style="edgeStyle=orthogonalEdgeStyle;rounded=0;orthogonalLoop=1;jettySize=auto;html=1;" edge="1" parent="1" source="2rhRFB4bLGAKDu0UOLrD-300" target="2rhRFB4bLGAKDu0UOLrD-306">
          <mxGeometry relative="1" as="geometry" />
        </mxCell>
        <mxCell id="2rhRFB4bLGAKDu0UOLrD-309" style="edgeStyle=orthogonalEdgeStyle;rounded=0;orthogonalLoop=1;jettySize=auto;html=1;exitX=0.5;exitY=1;exitDx=0;exitDy=0;entryX=0.5;entryY=0;entryDx=0;entryDy=0;" edge="1" parent="1" source="2rhRFB4bLGAKDu0UOLrD-300" target="2rhRFB4bLGAKDu0UOLrD-308">
          <mxGeometry relative="1" as="geometry" />
        </mxCell>
        <mxCell id="2rhRFB4bLGAKDu0UOLrD-300" value="前台" style="whiteSpace=wrap;html=1;rounded=0;" vertex="1" parent="1">
          <mxGeometry x="1610" y="980" width="120" height="60" as="geometry" />
        </mxCell>
        <mxCell id="2rhRFB4bLGAKDu0UOLrD-302" value="配送" style="whiteSpace=wrap;html=1;rounded=0;" vertex="1" parent="1">
          <mxGeometry x="1400" y="1120" width="120" height="60" as="geometry" />
        </mxCell>
        <mxCell id="2rhRFB4bLGAKDu0UOLrD-304" value="安装" style="whiteSpace=wrap;html=1;rounded=0;" vertex="1" parent="1">
          <mxGeometry x="1540" y="1120" width="120" height="60" as="geometry" />
        </mxCell>
        <mxCell id="2rhRFB4bLGAKDu0UOLrD-306" value="跟单" style="whiteSpace=wrap;html=1;rounded=0;" vertex="1" parent="1">
          <mxGeometry x="1820" y="1120" width="120" height="60" as="geometry" />
        </mxCell>
        <mxCell id="2rhRFB4bLGAKDu0UOLrD-308" value="仓管" style="rounded=0;whiteSpace=wrap;html=1;" vertex="1" parent="1">
          <mxGeometry x="1680" y="1120" width="120" height="60" as="geometry" />
        </mxCell>
        <mxCell id="2rhRFB4bLGAKDu0UOLrD-310" value="保洁" style="rounded=0;whiteSpace=wrap;html=1;" vertex="1" parent="1">
          <mxGeometry x="1960" y="1120" width="120" height="60" as="geometry" />
        </mxCell>
        <mxCell id="2rhRFB4bLGAKDu0UOLrD-311" value="厨师" style="rounded=0;whiteSpace=wrap;html=1;" vertex="1" parent="1">
          <mxGeometry x="1260" y="1120" width="120" height="60" as="geometry" />
        </mxCell>
        <mxCell id="2rhRFB4bLGAKDu0UOLrD-314" value="销售代表" style="whiteSpace=wrap;html=1;rounded=0;" vertex="1" parent="1">
          <mxGeometry x="980" y="1400" width="120" height="60" as="geometry" />
        </mxCell>
        <mxCell id="2rhRFB4bLGAKDu0UOLrD-316" value="设计师" style="whiteSpace=wrap;html=1;rounded=0;" vertex="1" parent="1">
          <mxGeometry x="1120" y="1400" width="120" height="60" as="geometry" />
        </mxCell>
        <mxCell id="2rhRFB4bLGAKDu0UOLrD-320" style="edgeStyle=orthogonalEdgeStyle;rounded=0;orthogonalLoop=1;jettySize=auto;html=1;entryX=0.5;entryY=0;entryDx=0;entryDy=0;" edge="1" parent="1" source="2rhRFB4bLGAKDu0UOLrD-318" target="2rhRFB4bLGAKDu0UOLrD-319">
          <mxGeometry relative="1" as="geometry" />
        </mxCell>
        <mxCell id="2rhRFB4bLGAKDu0UOLrD-318" value="营销部" style="rounded=0;whiteSpace=wrap;html=1;" vertex="1" parent="1">
          <mxGeometry x="2100" y="840" width="120" height="60" as="geometry" />
        </mxCell>
        <mxCell id="2rhRFB4bLGAKDu0UOLrD-323" value="" style="edgeStyle=orthogonalEdgeStyle;rounded=0;orthogonalLoop=1;jettySize=auto;html=1;" edge="1" parent="1" source="2rhRFB4bLGAKDu0UOLrD-319">
          <mxGeometry relative="1" as="geometry">
            <mxPoint x="2160" y="1120" as="targetPoint" />
          </mxGeometry>
        </mxCell>
        <mxCell id="2rhRFB4bLGAKDu0UOLrD-319" value="营销总监" style="rounded=0;whiteSpace=wrap;html=1;" vertex="1" parent="1">
          <mxGeometry x="2100" y="980" width="120" height="60" as="geometry" />
        </mxCell>
        <mxCell id="2rhRFB4bLGAKDu0UOLrD-330" value="" style="edgeStyle=orthogonalEdgeStyle;rounded=0;orthogonalLoop=1;jettySize=auto;html=1;" edge="1" parent="1" source="2rhRFB4bLGAKDu0UOLrD-324" target="2rhRFB4bLGAKDu0UOLrD-319">
          <mxGeometry relative="1" as="geometry" />
        </mxCell>
        <mxCell id="2rhRFB4bLGAKDu0UOLrD-324" value="营销专员" style="whiteSpace=wrap;html=1;rounded=0;" vertex="1" parent="1">
          <mxGeometry x="2100" y="1120" width="120" height="60" as="geometry" />
        </mxCell>
        <mxCell id="2rhRFB4bLGAKDu0UOLrD-335" value="" style="edgeStyle=orthogonalEdgeStyle;rounded=0;orthogonalLoop=1;jettySize=auto;html=1;" edge="1" parent="1" source="2rhRFB4bLGAKDu0UOLrD-333" target="2rhRFB4bLGAKDu0UOLrD-334">
          <mxGeometry relative="1" as="geometry" />
        </mxCell>
        <mxCell id="2rhRFB4bLGAKDu0UOLrD-333" value="人事部" style="rounded=0;whiteSpace=wrap;html=1;" vertex="1" parent="1">
          <mxGeometry x="2313" y="840" width="120" height="60" as="geometry" />
        </mxCell>
        <mxCell id="2rhRFB4bLGAKDu0UOLrD-337" value="" style="edgeStyle=orthogonalEdgeStyle;rounded=0;orthogonalLoop=1;jettySize=auto;html=1;" edge="1" parent="1" source="2rhRFB4bLGAKDu0UOLrD-334" target="2rhRFB4bLGAKDu0UOLrD-336">
          <mxGeometry relative="1" as="geometry" />
        </mxCell>
        <mxCell id="2rhRFB4bLGAKDu0UOLrD-339" style="edgeStyle=orthogonalEdgeStyle;rounded=0;orthogonalLoop=1;jettySize=auto;html=1;" edge="1" parent="1" source="2rhRFB4bLGAKDu0UOLrD-334" target="2rhRFB4bLGAKDu0UOLrD-338">
          <mxGeometry relative="1" as="geometry" />
        </mxCell>
        <mxCell id="2rhRFB4bLGAKDu0UOLrD-334" value="人力资源经理" style="whiteSpace=wrap;html=1;rounded=0;" vertex="1" parent="1">
          <mxGeometry x="2313" y="980" width="120" height="60" as="geometry" />
        </mxCell>
        <mxCell id="2rhRFB4bLGAKDu0UOLrD-336" value="人事专员" style="whiteSpace=wrap;html=1;rounded=0;" vertex="1" parent="1">
          <mxGeometry x="2240" y="1120" width="120" height="60" as="geometry" />
        </mxCell>
        <mxCell id="2rhRFB4bLGAKDu0UOLrD-338" value="培训专员" style="rounded=0;whiteSpace=wrap;html=1;" vertex="1" parent="1">
          <mxGeometry x="2390" y="1120" width="120" height="60" as="geometry" />
        </mxCell>
        <mxCell id="2rhRFB4bLGAKDu0UOLrD-342" value="" style="edgeStyle=orthogonalEdgeStyle;rounded=0;orthogonalLoop=1;jettySize=auto;html=1;" edge="1" parent="1" source="2rhRFB4bLGAKDu0UOLrD-340" target="2rhRFB4bLGAKDu0UOLrD-341">
          <mxGeometry relative="1" as="geometry" />
        </mxCell>
        <mxCell id="2rhRFB4bLGAKDu0UOLrD-340" value="财务部" style="rounded=0;whiteSpace=wrap;html=1;" vertex="1" parent="1">
          <mxGeometry x="2530" y="840" width="120" height="60" as="geometry" />
        </mxCell>
        <mxCell id="2rhRFB4bLGAKDu0UOLrD-344" value="" style="edgeStyle=orthogonalEdgeStyle;rounded=0;orthogonalLoop=1;jettySize=auto;html=1;" edge="1" parent="1" source="2rhRFB4bLGAKDu0UOLrD-341" target="2rhRFB4bLGAKDu0UOLrD-343">
          <mxGeometry relative="1" as="geometry" />
        </mxCell>
        <mxCell id="2rhRFB4bLGAKDu0UOLrD-341" value="财务总监" style="whiteSpace=wrap;html=1;rounded=0;" vertex="1" parent="1">
          <mxGeometry x="2530" y="980" width="120" height="60" as="geometry" />
        </mxCell>
        <mxCell id="2rhRFB4bLGAKDu0UOLrD-343" value="会计" style="whiteSpace=wrap;html=1;rounded=0;" vertex="1" parent="1">
          <mxGeometry x="2530" y="1120" width="120" height="60" as="geometry" />
        </mxCell>
        <mxCell id="2rhRFB4bLGAKDu0UOLrD-347" value="" style="edgeStyle=orthogonalEdgeStyle;rounded=0;orthogonalLoop=1;jettySize=auto;html=1;" edge="1" parent="1" source="2rhRFB4bLGAKDu0UOLrD-345" target="2rhRFB4bLGAKDu0UOLrD-346">
          <mxGeometry relative="1" as="geometry" />
        </mxCell>
        <mxCell id="2rhRFB4bLGAKDu0UOLrD-351" style="edgeStyle=orthogonalEdgeStyle;rounded=0;orthogonalLoop=1;jettySize=auto;html=1;entryX=0.5;entryY=0;entryDx=0;entryDy=0;" edge="1" parent="1" source="2rhRFB4bLGAKDu0UOLrD-345" target="2rhRFB4bLGAKDu0UOLrD-350">
          <mxGeometry relative="1" as="geometry" />
        </mxCell>
        <mxCell id="2rhRFB4bLGAKDu0UOLrD-345" value="技术部" style="rounded=0;whiteSpace=wrap;html=1;" vertex="1" parent="1">
          <mxGeometry x="2750" y="840" width="120" height="60" as="geometry" />
        </mxCell>
        <mxCell id="2rhRFB4bLGAKDu0UOLrD-346" value="美工" style="whiteSpace=wrap;html=1;rounded=0;" vertex="1" parent="1">
          <mxGeometry x="2670" y="980" width="120" height="60" as="geometry" />
        </mxCell>
        <mxCell id="2rhRFB4bLGAKDu0UOLrD-357" style="edgeStyle=orthogonalEdgeStyle;rounded=0;orthogonalLoop=1;jettySize=auto;html=1;entryX=0.5;entryY=0;entryDx=0;entryDy=0;" edge="1" parent="1" source="2rhRFB4bLGAKDu0UOLrD-349" target="2rhRFB4bLGAKDu0UOLrD-356">
          <mxGeometry relative="1" as="geometry" />
        </mxCell>
        <mxCell id="2rhRFB4bLGAKDu0UOLrD-349" value="电商部" style="rounded=0;whiteSpace=wrap;html=1;" vertex="1" parent="1">
          <mxGeometry x="3060" y="840" width="120" height="60" as="geometry" />
        </mxCell>
        <mxCell id="2rhRFB4bLGAKDu0UOLrD-350" value="程序" style="rounded=0;whiteSpace=wrap;html=1;" vertex="1" parent="1">
          <mxGeometry x="2830" y="980" width="120" height="60" as="geometry" />
        </mxCell>
        <mxCell id="2rhRFB4bLGAKDu0UOLrD-352" value="运营专员" style="whiteSpace=wrap;html=1;rounded=0;" vertex="1" parent="1">
          <mxGeometry x="2980" y="1120" width="120" height="60" as="geometry" />
        </mxCell>
        <mxCell id="2rhRFB4bLGAKDu0UOLrD-354" value="客服" style="rounded=0;whiteSpace=wrap;html=1;" vertex="1" parent="1">
          <mxGeometry x="3140" y="1120" width="120" height="60" as="geometry" />
        </mxCell>
        <mxCell id="2rhRFB4bLGAKDu0UOLrD-358" style="edgeStyle=orthogonalEdgeStyle;rounded=0;orthogonalLoop=1;jettySize=auto;html=1;" edge="1" parent="1" source="2rhRFB4bLGAKDu0UOLrD-356" target="2rhRFB4bLGAKDu0UOLrD-352">
          <mxGeometry relative="1" as="geometry" />
        </mxCell>
        <mxCell id="2rhRFB4bLGAKDu0UOLrD-359" style="edgeStyle=orthogonalEdgeStyle;rounded=0;orthogonalLoop=1;jettySize=auto;html=1;" edge="1" parent="1" source="2rhRFB4bLGAKDu0UOLrD-356" target="2rhRFB4bLGAKDu0UOLrD-354">
          <mxGeometry relative="1" as="geometry" />
        </mxCell>
        <mxCell id="2rhRFB4bLGAKDu0UOLrD-356" value="电商总监" style="rounded=0;whiteSpace=wrap;html=1;" vertex="1" parent="1">
          <mxGeometry x="3060" y="980" width="120" height="60" as="geometry" />
        </mxCell>
      </root>
    </mxGraphModel>
  </diagram>
</mxfile>
